<svg xmlns="http://www.w3.org/2000/svg" xmlns:xlink="http://www.w3.org/1999/xlink" width="312.861" height="114.409" viewBox="0 0 312.861 114.409">
  <defs>
    <clipPath id="clip-path">
      <path id="Path_20" data-name="Path 20" d="M61.6-672.851H373.923V-784.335H61.6Z" transform="translate(-61.601 784.335)" fill="none"/>
    </clipPath>
  </defs>
  <g id="Group_294" data-name="Group 294" transform="translate(-30.8 -274.833)">
    <g id="Group_42" data-name="Group 42" transform="translate(31.339 277.758)" clip-path="url(#clip-path)">
      <g id="Group_31" data-name="Group 31" transform="translate(0.169 0.001)">
        <path id="Path_9" data-name="Path 9" d="M-58.714-9.376c-.234.6-.421,1.082-.456,1.172.723.595,1.448.912,1.7,1.451.7,1.5,1.457,3.1-.172,4.623.58.438,1.079,1.216,1.608.061.939-2.046-.472-6.112-2.68-7.308M-71.432,15.812c.27-.032.539-.085.81-.1a18.075,18.075,0,0,0,10.05-3.7c1.845-1.346,3.612-2.8,5.486-4.106,3.6-2.505,4.867-2.118,6.556,1.867,1.688.173,2.674-.248,3.285-1.4,1.771-3.344-.04-6.593-3.8-6.774a4.708,4.708,0,0,0-1.911.215c-3.006,1.2-5.855.617-8.618-.709a3.179,3.179,0,0,0-4.042.647c-4,4.07-8.036,8.112-11.984,12.236a2.05,2.05,0,0,0-.1,1.836c1.339,2.757,4,3.568,6.694,4.163a47.95,47.95,0,0,0,14.976.54A15.707,15.707,0,0,0-49.344,19.2a3.315,3.315,0,0,0,1.956-3.686,8.736,8.736,0,0,0-2.395-5.093c-.142,4.442-1.706,6.6-5.424,7.481-5.628,1.324-10.941-.24-16.225-2.093m-19.431-.875c-3.636-.326-7.1-.3-9.862-2.837a11.644,11.644,0,0,0-2.067-1.46,2.8,2.8,0,0,0-3.792.446,10.184,10.184,0,0,0-1.495,1.659c-4.963,7.341-8.02,15.275-7.477,24.315a25.036,25.036,0,0,0,8.674,18.025c4.779,4.2,10.48,6.324,16.639,7.469,9.4,1.749,18.835,2.375,28.317.743,6.2-1.066,12.035-3.05,16.887-7.266a18.433,18.433,0,0,0,4.973-21.919c-2.252-4.97-5.893-8.806-10.072-12.178a2.129,2.129,0,0,0-1.481-.242,49.84,49.84,0,0,1-17.942-.342A15.076,15.076,0,0,1-75.4,18.6c-2.815-2.192-2.861-4.053-.443-6.585,3.7-3.88,7.543-7.63,11.33-11.432A4.28,4.28,0,0,1-59.2-.326,10.539,10.539,0,0,0-56.4.681,37.974,37.974,0,0,0-52.257.9l.407-.6-3.384-8.254c-.019,1.936.285,3.722.275,5.508A2.251,2.251,0,0,1-56.185-.686a2.7,2.7,0,0,1-2.133-.849A8.151,8.151,0,0,1-60.223-7.2a3.965,3.965,0,0,1,.544-2.25c.406-.534,1.3-.7,1.953-1.009a20.662,20.662,0,0,0-25.147-4,20.227,20.227,0,0,0-9.2,10.033c-2.8,6.545-2.253,12.972,1.214,19.36m-3.088-2.149C-99.392-2.192-90.228-14.32-79.827-17.7A23.054,23.054,0,0,1-50.29.113c2.019.046,4.149.062,5.621,1.709A5.47,5.47,0,0,1-43.324,4.7c.329,3.274-.348,5.575-3.785,6.768,1.533,3.383,2.255,6.677-.949,8.778,1.163,1.451,2.285,3.036,3.593,4.446,3.325,3.588,6.1,7.5,7.251,12.326,2.124,8.87-1.569,17.414-9.736,22.649-5.836,3.74-12.381,5.312-19.178,5.938a78.4,78.4,0,0,1-29.808-2.683c-10.939-3.262-18.462-10.2-20.832-21.729-1.618-7.868-.178-15.464,3.352-22.6a47.757,47.757,0,0,1,5.311-8.391c1.921-2.428,4.135-2.452,6.739-.718.91.605,1.766,1.291,2.666,1.912a7.118,7.118,0,0,0,4.749,1.386" transform="translate(117.429 18.751)" fill="#2b2e34"/>
      </g>
      <g id="Group_32" data-name="Group 32" transform="translate(1.981 1.716)">
        <path id="Path_10" data-name="Path 10" d="M-37.684-13.562A9.1,9.1,0,0,0-35.32-8.274c2.126,2.183,5.035,1.516,6.007-1.347a7.389,7.389,0,0,0-1.977-7.372c-1.524-1.3-3.6-1.438-4.678-.056a18.164,18.164,0,0,0-1.716,3.486m-12.93,18.41c-3.467-6.388-4.013-12.814-1.213-19.359a20.223,20.223,0,0,1,9.2-10.035,20.663,20.663,0,0,1,25.147,4c-.652.313-1.546.476-1.953,1.01a3.974,3.974,0,0,0-.545,2.25,8.154,8.154,0,0,0,1.906,5.662,2.7,2.7,0,0,0,2.133.849,2.251,2.251,0,0,0,1.226-1.762c.01-1.785-.294-3.571-.276-5.508L-11.6-9.79l-.408.6a38.229,38.229,0,0,1-4.147-.219,10.542,10.542,0,0,1-2.8-1.007,4.279,4.279,0,0,0-5.31.908c-3.786,3.8-7.626,7.551-11.331,11.431-2.417,2.531-2.371,4.393.444,6.584a15.077,15.077,0,0,0,5.836,2.751,49.841,49.841,0,0,0,17.943.343,2.13,2.13,0,0,1,1.48.243c4.18,3.371,7.821,7.208,10.072,12.177A18.432,18.432,0,0,1-4.788,45.942c-4.853,4.216-10.689,6.2-16.887,7.267-9.482,1.632-18.915,1-28.317-.744C-56.151,51.32-61.854,49.195-66.632,45a25.029,25.029,0,0,1-8.674-18.025C-75.85,17.931-72.792,10-67.83,2.656A10.156,10.156,0,0,1-66.335,1,2.8,2.8,0,0,1-62.543.552a11.717,11.717,0,0,1,2.067,1.46c2.764,2.533,6.225,2.51,9.861,2.836" transform="translate(75.369 27.124)" fill="#ffd446"/>
      </g>
      <g id="Group_33" data-name="Group 33" transform="translate(41.733 19.418)">
        <path id="Path_11" data-name="Path 11" d="M-4.432-15.146c5.285,1.853,10.6,3.418,16.225,2.092,3.719-.875,5.282-3.038,5.425-7.479a8.736,8.736,0,0,1,2.394,5.093,3.314,3.314,0,0,1-1.956,3.684,15.7,15.7,0,0,1-4.682,1.33A48,48,0,0,1-2-10.967c-2.7-.595-5.356-1.406-6.694-4.164a2.046,2.046,0,0,1,.1-1.835C-4.652-21.089-.62-25.132,3.385-29.2a3.175,3.175,0,0,1,4.04-.647c2.764,1.326,5.613,1.9,8.619.708a4.7,4.7,0,0,1,1.911-.215c3.76.18,5.572,3.431,3.8,6.774-.611,1.153-1.6,1.573-3.284,1.4-1.69-3.985-2.954-4.371-6.557-1.865-1.874,1.3-3.641,2.76-5.486,4.1a18.086,18.086,0,0,1-10.051,3.7c-.27.012-.54.063-.81.1" transform="translate(8.865 30.293)" fill="#fda433"/>
      </g>
      <g id="Group_34" data-name="Group 34" transform="translate(58.427 9.376)">
        <path id="Path_12" data-name="Path 12" d="M-.456,0C1.752,1.2,3.163,5.261,2.225,7.307,1.695,8.462,1.2,7.684.617,7.246c1.629-1.523.873-3.122.171-4.623-.252-.538-.976-.856-1.7-1.451C-.878,1.082-.689.6-.456,0" transform="translate(0.912)" fill="#fff"/>
      </g>
      <g id="Group_35" data-name="Group 35" transform="translate(39.665 10.812)">
        <path id="Path_13" data-name="Path 13" d="M-1.844-6.33q.045.592.091,1.185A10.274,10.274,0,0,0-.93-3.931C-.14-3.057.9-2.137,2.009-2.75a4.409,4.409,0,0,0,1.88-2.582,5.546,5.546,0,0,0-1.837-5.5,2.311,2.311,0,0,0-3.108-.4,3.878,3.878,0,0,0-.787,4.9M-3.687-8.195a18.183,18.183,0,0,1,1.716-3.486c1.08-1.383,3.154-1.244,4.678.056A7.389,7.389,0,0,1,4.683-4.253C3.711-1.391.8-.723-1.324-2.906A9.1,9.1,0,0,1-3.687-8.195" transform="translate(3.687 12.66)" fill="#2b2e34"/>
      </g>
      <g id="Group_36" data-name="Group 36" transform="translate(40.969 11.804)">
        <path id="Path_14" data-name="Path 14" d="M-.54-5.339a3.878,3.878,0,0,1,.787-4.9,2.311,2.311,0,0,1,3.108.4,5.546,5.546,0,0,1,1.837,5.5,4.409,4.409,0,0,1-1.88,2.582c-1.105.614-2.149-.307-2.939-1.18A10.274,10.274,0,0,1-.449-4.154a5,5,0,0,0,.721.473c.64.283,1.49.906,1.9.7.565-.29.9-1.184,1.145-1.888a2.747,2.747,0,0,0-.16-1.442C2.668-8.161,1.551-9.168.423-8.83-.6-8.524-.984-7.143-.54-5.339" transform="translate(1.08 10.677)" fill="#fff"/>
      </g>
      <g id="Group_37" data-name="Group 37" transform="translate(41.326 13.587)">
        <path id="Path_15" data-name="Path 15" d="M-.183-3.556C-.626-5.36-.246-6.741.78-7.047c1.129-.339,2.245.669,2.733,2.516a2.747,2.747,0,0,1,.16,1.441c-.241.7-.579,1.6-1.144,1.887-.409.209-1.26-.413-1.9-.7a5,5,0,0,1-.721-.473q-.046-.593-.091-1.184" transform="translate(0.365 7.112)" fill="#2b2e34"/>
      </g>
      <g id="Group_38" data-name="Group 38" transform="translate(29.696 51.556)">
        <path id="Path_16" data-name="Path 16" d="M-50.038-4.216A28.418,28.418,0,0,1-49.17,1.43a29.242,29.242,0,0,1-3.076,14.511A29.138,29.138,0,0,1-62.87,27.5c-2.439.995-11.69,4.416-21.081,0-11-5.173-17.7-18.987-15.8-34.045a18.236,18.236,0,0,1,8.369-1.876c9.395.274,13,8.757,21.24,10.733,4.16,1,10.615.614,20.108-6.523" transform="translate(100.076 8.432)" fill="#4ca9da"/>
      </g>
      <g id="Group_39" data-name="Group 39" transform="translate(29.696 51.556)">
        <path id="Path_17" data-name="Path 17" d="M-50.038-4.216A28.418,28.418,0,0,1-49.17,1.43a29.242,29.242,0,0,1-3.076,14.511A29.138,29.138,0,0,1-62.87,27.5c-2.439.995-11.69,4.416-21.081,0-11-5.173-17.7-18.987-15.8-34.045a18.236,18.236,0,0,1,8.369-1.876c9.395.274,13,8.757,21.24,10.733C-65.986,3.305-59.531,2.921-50.038-4.216Z" transform="translate(100.076 8.432)" fill="none" stroke="#2b2e34" stroke-width="3"/>
      </g>
      <g id="Group_40" data-name="Group 40" transform="translate(0.919 48.302)">
        <path id="Path_18" data-name="Path 18" d="M0-9.017C.25-7.612,5,16.759,27.228,25.4c12.445,4.839,28.247,3.949,39.405-4.253A34.075,34.075,0,0,0,72.6,15.523a34.439,34.439,0,0,1-4.655-2.573C65.7,11.471,61.072,7.761,49.125-8.918a22.162,22.162,0,0,0-8.051-7.493,18.169,18.169,0,0,0-4.183-1.511,25.684,25.684,0,0,0-4.51-.025c-9.631.8-13.475,6.673-22.593,8.633A27.834,27.834,0,0,1,0-9.017" transform="translate(0 18.035)" fill="#4ca9da"/>
      </g>
      <g id="Group_41" data-name="Group 41" transform="translate(0.919 48.302)">
        <path id="Path_19" data-name="Path 19" d="M0-9.017C.25-7.612,5,16.759,27.228,25.4c12.445,4.839,28.247,3.949,39.405-4.253A34.075,34.075,0,0,0,72.6,15.523a34.439,34.439,0,0,1-4.655-2.573C65.7,11.471,61.072,7.761,49.125-8.918a22.162,22.162,0,0,0-8.051-7.493,18.169,18.169,0,0,0-4.183-1.511,25.684,25.684,0,0,0-4.51-.025c-9.631.8-13.475,6.673-22.593,8.633A27.834,27.834,0,0,1,0-9.017Z" transform="translate(0 18.035)" fill="none" stroke="#2b2e34" stroke-width="3"/>
      </g>
    </g>
    <g id="Group" transform="translate(124.972 275.785)">
      <text id="A" transform="translate(0 32)" fill="#2b2e34" font-size="30" font-family="SegoeUI, Segoe UI"><tspan x="0" y="0">A</tspan></text>
      <text id="arhus" transform="translate(19.318 32)" fill="#2b2e34" font-size="30" font-family="SegoeUI, Segoe UI"><tspan x="0" y="0">arhus</tspan></text>
    </g>
    <g id="Group_43" data-name="Group 43" transform="translate(30.8 274.833)" clip-path="url(#clip-path)">
      <text id="Duck_Race" data-name="Duck Race" transform="translate(88.9 82.678)" fill="#2b2e34" font-size="55" font-family="Satisfy-Regular, Satisfy"><tspan x="0" y="0">Duck Race</tspan></text>
    </g>
  </g>
</svg>
